<svg width="1145" height="560" viewBox="0 0 1145 560" fill="none" xmlns="http://www.w3.org/2000/svg">
<rect width="1145" height="560" rx="25" fill="white"/>
<path d="M110.104 204.8C110.104 193.6 112.371 183.8 116.904 175.4C121.437 166.867 127.637 160.267 135.504 155.6C143.504 150.933 152.437 148.6 162.304 148.6C170.837 148.6 178.771 150.6 186.104 154.6C193.437 158.467 199.037 163.6 202.904 170V112H221.304V260H202.904V239.4C199.304 245.933 193.971 251.333 186.904 255.6C179.837 259.733 171.571 261.8 162.104 261.8C152.371 261.8 143.504 259.4 135.504 254.6C127.637 249.8 121.437 243.067 116.904 234.4C112.371 225.733 110.104 215.867 110.104 204.8ZM202.904 205C202.904 196.733 201.237 189.533 197.904 183.4C194.571 177.267 190.037 172.6 184.304 169.4C178.704 166.067 172.504 164.4 165.704 164.4C158.904 164.4 152.704 166 147.104 169.2C141.504 172.4 137.037 177.067 133.704 183.2C130.371 189.333 128.704 196.533 128.704 204.8C128.704 213.2 130.371 220.533 133.704 226.8C137.037 232.933 141.504 237.667 147.104 241C152.704 244.2 158.904 245.8 165.704 245.8C172.504 245.8 178.704 244.2 184.304 241C190.037 237.667 194.571 232.933 197.904 226.8C201.237 220.533 202.904 213.267 202.904 205ZM270.26 170.6C273.86 164.333 279.193 159.133 286.26 155C293.46 150.733 301.793 148.6 311.26 148.6C320.993 148.6 329.793 150.933 337.66 155.6C345.66 160.267 351.927 166.867 356.46 175.4C360.993 183.8 363.26 193.6 363.26 204.8C363.26 215.867 360.993 225.733 356.46 234.4C351.927 243.067 345.66 249.8 337.66 254.6C329.793 259.4 320.993 261.8 311.26 261.8C301.927 261.8 293.66 259.733 286.46 255.6C279.393 251.333 273.993 246.067 270.26 239.8V312H252.06V150.4H270.26V170.6ZM344.66 204.8C344.66 196.533 342.993 189.333 339.66 183.2C336.327 177.067 331.793 172.4 326.06 169.2C320.46 166 314.26 164.4 307.46 164.4C300.793 164.4 294.593 166.067 288.86 169.4C283.26 172.6 278.727 177.333 275.26 183.6C271.927 189.733 270.26 196.867 270.26 205C270.26 213.267 271.927 220.533 275.26 226.8C278.727 232.933 283.26 237.667 288.86 241C294.593 244.2 300.793 245.8 307.46 245.8C314.26 245.8 320.46 244.2 326.06 241C331.793 237.667 336.327 232.933 339.66 226.8C342.993 220.533 344.66 213.2 344.66 204.8ZM380.416 204.8C380.416 193.6 382.683 183.8 387.216 175.4C391.75 166.867 397.95 160.267 405.816 155.6C413.816 150.933 422.683 148.6 432.416 148.6C442.016 148.6 450.35 150.667 457.416 154.8C464.483 158.933 469.75 164.133 473.216 170.4V150.4H491.616V260H473.216V239.6C469.616 246 464.216 251.333 457.016 255.6C449.95 259.733 441.683 261.8 432.216 261.8C422.483 261.8 413.683 259.4 405.816 254.6C397.95 249.8 391.75 243.067 387.216 234.4C382.683 225.733 380.416 215.867 380.416 204.8ZM473.216 205C473.216 196.733 471.55 189.533 468.216 183.4C464.883 177.267 460.35 172.6 454.616 169.4C449.016 166.067 442.816 164.4 436.016 164.4C429.216 164.4 423.016 166 417.416 169.2C411.816 172.4 407.35 177.067 404.016 183.2C400.683 189.333 399.016 196.533 399.016 204.8C399.016 213.2 400.683 220.533 404.016 226.8C407.35 232.933 411.816 237.667 417.416 241C423.016 244.2 429.216 245.8 436.016 245.8C442.816 245.8 449.016 244.2 454.616 241C460.35 237.667 464.883 232.933 468.216 226.8C471.55 220.533 473.216 213.267 473.216 205ZM619.573 150.4V260H601.373V243.8C597.906 249.4 593.039 253.8 586.773 257C580.639 260.067 573.839 261.6 566.373 261.6C557.839 261.6 550.173 259.867 543.373 256.4C536.573 252.8 531.173 247.467 527.173 240.4C523.306 233.333 521.373 224.733 521.373 214.6V150.4H539.373V212.2C539.373 223 542.106 231.333 547.573 237.2C553.039 242.933 560.506 245.8 569.973 245.8C579.706 245.8 587.373 242.8 592.973 236.8C598.573 230.8 601.373 222.067 601.373 210.6V150.4H619.573ZM668.502 112V260H650.302V112H668.502ZM747.321 261.8C737.054 261.8 727.721 259.467 719.321 254.8C711.054 250.133 704.521 243.533 699.721 235C695.054 226.333 692.721 216.333 692.721 205C692.721 193.8 695.121 183.933 699.921 175.4C704.854 166.733 711.521 160.133 719.921 155.6C728.321 150.933 737.721 148.6 748.121 148.6C758.521 148.6 767.921 150.933 776.321 155.6C784.721 160.133 791.321 166.667 796.121 175.2C801.054 183.733 803.521 193.667 803.521 205C803.521 216.333 800.988 226.333 795.921 235C790.988 243.533 784.254 250.133 775.721 254.8C767.188 259.467 757.721 261.8 747.321 261.8ZM747.321 245.8C753.854 245.8 759.988 244.267 765.721 241.2C771.454 238.133 776.054 233.533 779.521 227.4C783.121 221.267 784.921 213.8 784.921 205C784.921 196.2 783.188 188.733 779.721 182.6C776.254 176.467 771.721 171.933 766.121 169C760.521 165.933 754.454 164.4 747.921 164.4C741.254 164.4 735.121 165.933 729.521 169C724.054 171.933 719.654 176.467 716.321 182.6C712.988 188.733 711.321 196.2 711.321 205C711.321 213.933 712.921 221.467 716.121 227.6C719.454 233.733 723.854 238.333 729.321 241.4C734.788 244.333 740.788 245.8 747.321 245.8ZM866.251 261.8C857.851 261.8 850.317 260.4 843.651 257.6C836.984 254.667 831.717 250.667 827.851 245.6C823.984 240.4 821.851 234.467 821.451 227.8H840.251C840.784 233.267 843.317 237.733 847.851 241.2C852.517 244.667 858.584 246.4 866.051 246.4C872.984 246.4 878.451 244.867 882.451 241.8C886.451 238.733 888.451 234.867 888.451 230.2C888.451 225.4 886.317 221.867 882.051 219.6C877.784 217.2 871.184 214.867 862.251 212.6C854.117 210.467 847.451 208.333 842.251 206.2C837.184 203.933 832.784 200.667 829.051 196.4C825.451 192 823.651 186.267 823.651 179.2C823.651 173.6 825.317 168.467 828.651 163.8C831.984 159.133 836.717 155.467 842.851 152.8C848.984 150 855.984 148.6 863.851 148.6C875.984 148.6 885.784 151.667 893.251 157.8C900.717 163.933 904.717 172.333 905.251 183H887.051C886.651 177.267 884.317 172.667 880.051 169.2C875.917 165.733 870.317 164 863.251 164C856.717 164 851.517 165.4 847.651 168.2C843.784 171 841.851 174.667 841.851 179.2C841.851 182.8 842.984 185.8 845.251 188.2C847.651 190.467 850.584 192.333 854.051 193.8C857.651 195.133 862.584 196.667 868.851 198.4C876.717 200.533 883.117 202.667 888.051 204.8C892.984 206.8 897.184 209.867 900.651 214C904.251 218.133 906.117 223.533 906.251 230.2C906.251 236.2 904.584 241.6 901.251 246.4C897.917 251.2 893.184 255 887.051 257.8C881.051 260.467 874.117 261.8 866.251 261.8Z" fill="black"/>
<path d="M1009.54 149.8C1006.61 135 997.476 127.6 982.143 127.6C970.276 127.6 961.41 132.2 955.543 141.4C949.676 150.467 946.81 165.467 946.943 186.4C950.01 179.467 955.076 174.067 962.143 170.2C969.343 166.2 977.343 164.2 986.143 164.2C999.876 164.2 1010.81 168.467 1018.94 177C1027.21 185.533 1031.34 197.333 1031.34 212.4C1031.34 221.467 1029.54 229.6 1025.94 236.8C1022.48 244 1017.14 249.733 1009.94 254C1002.88 258.267 994.276 260.4 984.143 260.4C970.41 260.4 959.676 257.333 951.943 251.2C944.21 245.067 938.81 236.6 935.743 225.8C932.676 215 931.143 201.667 931.143 185.8C931.143 136.867 948.21 112.4 982.343 112.4C995.41 112.4 1005.68 115.933 1013.14 123C1020.61 130.067 1025.01 139 1026.34 149.8H1009.54ZM982.343 179.6C976.61 179.6 971.21 180.8 966.143 183.2C961.076 185.467 956.943 189 953.743 193.8C950.676 198.467 949.143 204.2 949.143 211C949.143 221.133 952.076 229.4 957.943 235.8C963.81 242.067 972.21 245.2 983.143 245.2C992.476 245.2 999.876 242.333 1005.34 236.6C1010.94 230.733 1013.74 222.867 1013.74 213C1013.74 202.6 1011.08 194.467 1005.74 188.6C1000.41 182.6 992.61 179.6 982.343 179.6Z" fill="#40A2E3"/>
<path d="M115.399 425.504C112.087 425.504 109.159 424.928 106.615 423.776C104.119 422.624 102.151 421.016 100.711 418.952C99.271 416.888 98.503 414.584 98.407 412.04H103.735C103.975 414.488 105.055 416.648 106.975 418.52C108.895 420.344 111.703 421.256 115.399 421.256C118.807 421.256 121.495 420.392 123.463 418.664C125.479 416.888 126.487 414.656 126.487 411.968C126.487 409.808 125.935 408.08 124.831 406.784C123.727 405.44 122.359 404.456 120.727 403.832C119.095 403.16 116.839 402.44 113.959 401.672C110.599 400.76 107.935 399.872 105.967 399.008C103.999 398.144 102.319 396.8 100.927 394.976C99.535 393.152 98.839 390.68 98.839 387.56C98.839 384.968 99.511 382.664 100.855 380.648C102.199 378.584 104.095 376.976 106.543 375.824C108.991 374.672 111.799 374.096 114.967 374.096C119.623 374.096 123.367 375.248 126.199 377.552C129.079 379.808 130.735 382.736 131.167 386.336H125.695C125.359 384.272 124.231 382.448 122.311 380.864C120.391 379.232 117.799 378.416 114.535 378.416C111.511 378.416 108.991 379.232 106.975 380.864C104.959 382.448 103.951 384.632 103.951 387.416C103.951 389.528 104.503 391.232 105.607 392.528C106.711 393.824 108.079 394.808 109.711 395.48C111.391 396.152 113.647 396.872 116.479 397.64C119.743 398.552 122.383 399.464 124.399 400.376C126.415 401.24 128.119 402.584 129.511 404.408C130.903 406.232 131.599 408.68 131.599 411.752C131.599 414.104 130.975 416.336 129.727 418.448C128.479 420.56 126.631 422.264 124.183 423.56C121.735 424.856 118.807 425.504 115.399 425.504ZM176.906 403.328C176.906 405.056 176.858 406.376 176.762 407.288H144.146C144.29 410.264 145.01 412.808 146.306 414.92C147.602 417.032 149.306 418.64 151.418 419.744C153.53 420.8 155.834 421.328 158.33 421.328C161.594 421.328 164.33 420.536 166.538 418.952C168.794 417.368 170.282 415.232 171.002 412.544H176.33C175.37 416.384 173.306 419.528 170.138 421.976C167.018 424.376 163.082 425.576 158.33 425.576C154.634 425.576 151.322 424.76 148.394 423.128C145.466 421.448 143.162 419.096 141.482 416.072C139.85 413 139.034 409.424 139.034 405.344C139.034 401.264 139.85 397.688 141.482 394.616C143.114 391.544 145.394 389.192 148.322 387.56C151.25 385.928 154.586 385.112 158.33 385.112C162.074 385.112 165.338 385.928 168.122 387.56C170.954 389.192 173.114 391.4 174.602 394.184C176.138 396.92 176.906 399.968 176.906 403.328ZM171.794 403.184C171.842 400.256 171.242 397.76 169.994 395.696C168.794 393.632 167.138 392.072 165.026 391.016C162.914 389.96 160.61 389.432 158.114 389.432C154.37 389.432 151.178 390.632 148.538 393.032C145.898 395.432 144.434 398.816 144.146 403.184H171.794ZM191.167 371.72V425H186.127V371.72H191.167ZM218.06 389.936H208.916V425H203.876V389.936H198.404V385.688H203.876V382.952C203.876 378.68 204.956 375.536 207.116 373.52C209.324 371.504 212.876 370.496 217.772 370.496V374.816C214.508 374.816 212.204 375.44 210.86 376.688C209.564 377.936 208.916 380.024 208.916 382.952V385.688H218.06V389.936ZM252.304 389.936V414.344C252.304 416.744 252.76 418.4 253.672 419.312C254.584 420.224 256.192 420.68 258.496 420.68H263.104V425H257.704C254.152 425 251.512 424.184 249.784 422.552C248.056 420.872 247.192 418.136 247.192 414.344V389.936H241.72V385.688H247.192V375.824H252.304V385.688H263.104V389.936H252.304ZM269.112 405.272C269.112 401.24 269.904 397.712 271.488 394.688C273.12 391.616 275.352 389.264 278.184 387.632C281.064 385.952 284.304 385.112 287.904 385.112C291.648 385.112 294.864 385.976 297.552 387.704C300.288 389.432 302.256 391.64 303.456 394.328V385.688H308.496V425H303.456V416.288C302.208 418.976 300.216 421.208 297.48 422.984C294.792 424.712 291.576 425.576 287.832 425.576C284.28 425.576 281.064 424.736 278.184 423.056C275.352 421.376 273.12 419 271.488 415.928C269.904 412.856 269.112 409.304 269.112 405.272ZM303.456 405.344C303.456 402.176 302.808 399.392 301.512 396.992C300.216 394.592 298.44 392.744 296.184 391.448C293.976 390.152 291.528 389.504 288.84 389.504C286.056 389.504 283.56 390.128 281.352 391.376C279.144 392.624 277.392 394.448 276.096 396.848C274.848 399.2 274.224 402.008 274.224 405.272C274.224 408.488 274.848 411.32 276.096 413.768C277.392 416.168 279.144 418.016 281.352 419.312C283.56 420.56 286.056 421.184 288.84 421.184C291.528 421.184 293.976 420.536 296.184 419.24C298.44 417.944 300.216 416.096 301.512 413.696C302.808 411.296 303.456 408.512 303.456 405.344ZM354.058 385.688V425H349.018V418.088C347.866 420.536 346.09 422.408 343.69 423.704C341.29 425 338.602 425.648 335.626 425.648C330.922 425.648 327.082 424.208 324.106 421.328C321.13 418.4 319.642 414.176 319.642 408.656V385.688H324.61V408.08C324.61 412.352 325.666 415.616 327.778 417.872C329.938 420.128 332.866 421.256 336.562 421.256C340.354 421.256 343.378 420.056 345.634 417.656C347.89 415.256 349.018 411.728 349.018 407.072V385.688H354.058ZM382.053 385.112C385.749 385.112 388.965 385.976 391.701 387.704C394.437 389.432 396.405 391.616 397.605 394.256V385.688H402.645V426.008C402.645 429.608 401.853 432.8 400.269 435.584C398.733 438.368 396.573 440.504 393.789 441.992C391.005 443.528 387.837 444.296 384.285 444.296C379.245 444.296 375.045 443.096 371.685 440.696C368.373 438.296 366.309 435.032 365.493 430.904H370.461C371.325 433.64 372.957 435.824 375.357 437.456C377.805 439.088 380.781 439.904 384.285 439.904C386.829 439.904 389.109 439.352 391.125 438.248C393.141 437.192 394.725 435.608 395.877 433.496C397.029 431.384 397.605 428.888 397.605 426.008V416.288C396.357 418.976 394.365 421.208 391.629 422.984C388.941 424.712 385.749 425.576 382.053 425.576C378.453 425.576 375.213 424.736 372.333 423.056C369.501 421.376 367.269 419 365.637 415.928C364.053 412.856 363.261 409.304 363.261 405.272C363.261 401.24 364.053 397.712 365.637 394.688C367.269 391.616 369.501 389.264 372.333 387.632C375.213 385.952 378.453 385.112 382.053 385.112ZM397.605 405.344C397.605 402.176 396.957 399.392 395.661 396.992C394.365 394.592 392.589 392.744 390.333 391.448C388.125 390.152 385.677 389.504 382.989 389.504C380.205 389.504 377.709 390.128 375.501 391.376C373.293 392.624 371.541 394.448 370.245 396.848C368.997 399.2 368.373 402.008 368.373 405.272C368.373 408.488 368.997 411.32 370.245 413.768C371.541 416.168 373.293 418.016 375.501 419.312C377.709 420.56 380.205 421.184 382.989 421.184C385.677 421.184 388.125 420.536 390.333 419.24C392.589 417.944 394.365 416.096 395.661 413.696C396.957 411.296 397.605 408.512 397.605 405.344ZM432.871 384.968C435.847 384.968 438.511 385.592 440.863 386.84C443.263 388.088 445.135 390.008 446.479 392.6C447.871 395.144 448.567 398.264 448.567 401.96V425H443.599V402.536C443.599 398.264 442.519 395 440.359 392.744C438.247 390.488 435.343 389.36 431.647 389.36C427.855 389.36 424.831 390.56 422.575 392.96C420.319 395.36 419.191 398.888 419.191 403.544V425H414.151V371.72H419.191V392.384C420.439 390.032 422.263 388.208 424.663 386.912C427.111 385.616 429.847 384.968 432.871 384.968ZM466.265 389.936V414.344C466.265 416.744 466.721 418.4 467.633 419.312C468.545 420.224 470.153 420.68 472.457 420.68H477.065V425H471.665C468.113 425 465.473 424.184 463.745 422.552C462.017 420.872 461.153 418.136 461.153 414.344V389.936H455.681V385.688H461.153V375.824H466.265V385.688H477.065V389.936H466.265ZM699.25 464.968C702.226 464.968 704.89 465.592 707.242 466.84C709.642 468.088 711.514 470.008 712.858 472.6C714.25 475.144 714.946 478.264 714.946 481.96V505H709.978V482.536C709.978 478.264 708.898 475 706.738 472.744C704.626 470.488 701.722 469.36 698.026 469.36C694.234 469.36 691.21 470.56 688.954 472.96C686.698 475.36 685.57 478.888 685.57 483.544V505H680.53V451.72H685.57V472.384C686.818 470.032 688.642 468.208 691.042 466.912C693.49 465.616 696.226 464.968 699.25 464.968ZM761.66 483.328C761.66 485.056 761.612 486.376 761.516 487.288H728.9C729.044 490.264 729.764 492.808 731.06 494.92C732.356 497.032 734.06 498.64 736.172 499.744C738.284 500.8 740.588 501.328 743.084 501.328C746.348 501.328 749.084 500.536 751.292 498.952C753.548 497.368 755.036 495.232 755.756 492.544H761.084C760.124 496.384 758.06 499.528 754.892 501.976C751.772 504.376 747.836 505.576 743.084 505.576C739.388 505.576 736.076 504.76 733.148 503.128C730.22 501.448 727.916 499.096 726.236 496.072C724.604 493 723.788 489.424 723.788 485.344C723.788 481.264 724.604 477.688 726.236 474.616C727.868 471.544 730.148 469.192 733.076 467.56C736.004 465.928 739.34 465.112 743.084 465.112C746.828 465.112 750.092 465.928 752.876 467.56C755.708 469.192 757.868 471.4 759.356 474.184C760.892 476.92 761.66 479.968 761.66 483.328ZM756.548 483.184C756.596 480.256 755.996 477.76 754.748 475.696C753.548 473.632 751.892 472.072 749.78 471.016C747.668 469.96 745.364 469.432 742.868 469.432C739.124 469.432 735.932 470.632 733.292 473.032C730.652 475.432 729.188 478.816 728.9 483.184H756.548ZM775.921 451.72V505H770.881V451.72H775.921ZM792.302 474.328C793.55 471.688 795.518 469.504 798.206 467.776C800.942 466 804.182 465.112 807.926 465.112C811.478 465.112 814.67 465.952 817.502 467.632C820.382 469.264 822.614 471.616 824.198 474.688C825.83 477.712 826.646 481.24 826.646 485.272C826.646 489.304 825.83 492.856 824.198 495.928C822.614 499 820.382 501.376 817.502 503.056C814.67 504.736 811.478 505.576 807.926 505.576C804.23 505.576 801.014 504.712 798.278 502.984C795.542 501.208 793.55 499 792.302 496.36V523.576H787.334V465.688H792.302V474.328ZM821.534 485.272C821.534 482.008 820.886 479.2 819.59 476.848C818.342 474.448 816.614 472.624 814.406 471.376C812.198 470.128 809.702 469.504 806.918 469.504C804.23 469.504 801.758 470.152 799.502 471.448C797.294 472.744 795.542 474.592 794.246 476.992C792.95 479.392 792.302 482.176 792.302 485.344C792.302 488.512 792.95 491.296 794.246 493.696C795.542 496.096 797.294 497.944 799.502 499.24C801.758 500.536 804.23 501.184 806.918 501.184C809.702 501.184 812.198 500.56 814.406 499.312C816.614 498.016 818.342 496.168 819.59 493.768C820.886 491.32 821.534 488.488 821.534 485.272Z" fill="#40A2E3"/>
<path d="M556.975 385.688L544.663 425H539.623L528.751 392.024L517.879 425H512.767L500.455 385.688H505.567L515.359 419.888L526.375 385.688H531.415L542.287 419.96L552.007 385.688H556.975ZM599.414 403.328C599.414 405.056 599.366 406.376 599.27 407.288H566.654C566.798 410.264 567.518 412.808 568.814 414.92C570.11 417.032 571.814 418.64 573.926 419.744C576.038 420.8 578.342 421.328 580.838 421.328C584.102 421.328 586.838 420.536 589.046 418.952C591.302 417.368 592.79 415.232 593.51 412.544H598.838C597.878 416.384 595.814 419.528 592.646 421.976C589.526 424.376 585.59 425.576 580.838 425.576C577.142 425.576 573.83 424.76 570.902 423.128C567.974 421.448 565.67 419.096 563.99 416.072C562.358 413 561.542 409.424 561.542 405.344C561.542 401.264 562.358 397.688 563.99 394.616C565.622 391.544 567.902 389.192 570.83 387.56C573.758 385.928 577.094 385.112 580.838 385.112C584.582 385.112 587.846 385.928 590.63 387.56C593.462 389.192 595.622 391.4 597.11 394.184C598.646 396.92 599.414 399.968 599.414 403.328ZM594.302 403.184C594.35 400.256 593.75 397.76 592.502 395.696C591.302 393.632 589.646 392.072 587.534 391.016C585.422 389.96 583.118 389.432 580.622 389.432C576.878 389.432 573.686 390.632 571.046 393.032C568.406 395.432 566.942 398.816 566.654 403.184H594.302ZM613.603 394.4C614.899 391.664 616.891 389.432 619.579 387.704C622.315 385.976 625.531 385.112 629.227 385.112C632.827 385.112 636.043 385.952 638.875 387.632C641.707 389.264 643.915 391.616 645.499 394.688C647.131 397.712 647.947 401.24 647.947 405.272C647.947 409.304 647.131 412.856 645.499 415.928C643.915 419 641.683 421.376 638.803 423.056C635.971 424.736 632.779 425.576 629.227 425.576C625.483 425.576 622.243 424.736 619.507 423.056C616.819 421.328 614.851 419.096 613.603 416.36V425H608.635V371.72H613.603V394.4ZM642.835 405.272C642.835 402.008 642.187 399.2 640.891 396.848C639.643 394.448 637.915 392.624 635.707 391.376C633.499 390.128 631.003 389.504 628.219 389.504C625.531 389.504 623.059 390.152 620.803 391.448C618.595 392.744 616.843 394.592 615.547 396.992C614.251 399.392 613.603 402.176 613.603 405.344C613.603 408.512 614.251 411.296 615.547 413.696C616.843 416.096 618.595 417.944 620.803 419.24C623.059 420.536 625.531 421.184 628.219 421.184C631.003 421.184 633.499 420.56 635.707 419.312C637.915 418.016 639.643 416.168 640.891 413.768C642.187 411.32 642.835 408.488 642.835 405.272ZM674.675 405.272C674.675 401.24 675.491 397.712 677.123 394.688C678.755 391.616 680.987 389.264 683.819 387.632C686.699 385.952 689.939 385.112 693.539 385.112C696.995 385.112 700.115 385.952 702.899 387.632C705.683 389.312 707.723 391.496 709.019 394.184V371.72H714.059V425H709.019V416.216C707.819 418.952 705.851 421.208 703.115 422.984C700.379 424.712 697.163 425.576 693.467 425.576C689.867 425.576 686.627 424.736 683.747 423.056C680.915 421.376 678.683 419 677.051 415.928C675.467 412.856 674.675 409.304 674.675 405.272ZM709.019 405.344C709.019 402.176 708.371 399.392 707.075 396.992C705.779 394.592 704.003 392.744 701.747 391.448C699.539 390.152 697.091 389.504 694.403 389.504C691.619 389.504 689.123 390.128 686.915 391.376C684.707 392.624 682.955 394.448 681.659 396.848C680.411 399.2 679.787 402.008 679.787 405.272C679.787 408.488 680.411 411.32 681.659 413.768C682.955 416.168 684.707 418.016 686.915 419.312C689.123 420.56 691.619 421.184 694.403 421.184C697.091 421.184 699.539 420.536 701.747 419.24C704.003 417.944 705.779 416.096 707.075 413.696C708.371 411.296 709.019 408.512 709.019 405.344ZM761.133 403.328C761.133 405.056 761.085 406.376 760.989 407.288H728.373C728.517 410.264 729.237 412.808 730.533 414.92C731.829 417.032 733.533 418.64 735.645 419.744C737.757 420.8 740.061 421.328 742.557 421.328C745.821 421.328 748.557 420.536 750.765 418.952C753.021 417.368 754.509 415.232 755.229 412.544H760.557C759.597 416.384 757.533 419.528 754.365 421.976C751.245 424.376 747.309 425.576 742.557 425.576C738.861 425.576 735.549 424.76 732.621 423.128C729.693 421.448 727.389 419.096 725.709 416.072C724.077 413 723.261 409.424 723.261 405.344C723.261 401.264 724.077 397.688 725.709 394.616C727.341 391.544 729.621 389.192 732.549 387.56C735.477 385.928 738.813 385.112 742.557 385.112C746.301 385.112 749.565 385.928 752.349 387.56C755.181 389.192 757.341 391.4 758.829 394.184C760.365 396.92 761.133 399.968 761.133 403.328ZM756.021 403.184C756.069 400.256 755.469 397.76 754.221 395.696C753.021 393.632 751.365 392.072 749.253 391.016C747.141 389.96 744.837 389.432 742.341 389.432C738.597 389.432 735.405 390.632 732.765 393.032C730.125 395.432 728.661 398.816 728.373 403.184H756.021ZM784.322 420.104L797.57 385.688H802.898L787.13 425H781.442L765.674 385.688H771.074L784.322 420.104ZM845.297 403.328C845.297 405.056 845.249 406.376 845.153 407.288H812.537C812.681 410.264 813.401 412.808 814.697 414.92C815.993 417.032 817.697 418.64 819.809 419.744C821.921 420.8 824.225 421.328 826.721 421.328C829.985 421.328 832.721 420.536 834.929 418.952C837.185 417.368 838.673 415.232 839.393 412.544H844.721C843.761 416.384 841.697 419.528 838.529 421.976C835.409 424.376 831.473 425.576 826.721 425.576C823.025 425.576 819.713 424.76 816.785 423.128C813.857 421.448 811.553 419.096 809.873 416.072C808.241 413 807.425 409.424 807.425 405.344C807.425 401.264 808.241 397.688 809.873 394.616C811.505 391.544 813.785 389.192 816.713 387.56C819.641 385.928 822.977 385.112 826.721 385.112C830.465 385.112 833.729 385.928 836.513 387.56C839.345 389.192 841.505 391.4 842.993 394.184C844.529 396.92 845.297 399.968 845.297 403.328ZM840.185 403.184C840.233 400.256 839.633 397.76 838.385 395.696C837.185 393.632 835.529 392.072 833.417 391.016C831.305 389.96 829.001 389.432 826.505 389.432C822.761 389.432 819.569 390.632 816.929 393.032C814.289 395.432 812.825 398.816 812.537 403.184H840.185ZM859.558 371.72V425H854.518V371.72H859.558ZM888.179 425.576C884.483 425.576 881.147 424.76 878.171 423.128C875.243 421.448 872.915 419.096 871.187 416.072C869.507 413 868.667 409.424 868.667 405.344C868.667 401.264 869.531 397.712 871.259 394.688C872.987 391.616 875.339 389.264 878.315 387.632C881.291 385.952 884.627 385.112 888.323 385.112C892.019 385.112 895.355 385.952 898.331 387.632C901.355 389.264 903.707 391.616 905.387 394.688C907.115 397.712 907.979 401.264 907.979 405.344C907.979 409.376 907.115 412.928 905.387 416C903.659 419.072 901.283 421.448 898.259 423.128C895.235 424.76 891.875 425.576 888.179 425.576ZM888.179 421.184C890.771 421.184 893.171 420.608 895.379 419.456C897.587 418.256 899.363 416.48 900.707 414.128C902.099 411.728 902.795 408.8 902.795 405.344C902.795 401.888 902.123 398.984 900.779 396.632C899.435 394.232 897.659 392.456 895.451 391.304C893.243 390.104 890.843 389.504 888.251 389.504C885.659 389.504 883.259 390.104 881.051 391.304C878.843 392.456 877.067 394.232 875.723 396.632C874.427 398.984 873.779 401.888 873.779 405.344C873.779 408.8 874.427 411.728 875.723 414.128C877.067 416.48 878.819 418.256 880.979 419.456C883.187 420.608 885.587 421.184 888.179 421.184ZM922.134 394.328C923.382 391.688 925.35 389.504 928.038 387.776C930.774 386 934.014 385.112 937.758 385.112C941.31 385.112 944.502 385.952 947.334 387.632C950.214 389.264 952.446 391.616 954.03 394.688C955.662 397.712 956.478 401.24 956.478 405.272C956.478 409.304 955.662 412.856 954.03 415.928C952.446 419 950.214 421.376 947.334 423.056C944.502 424.736 941.31 425.576 937.758 425.576C934.062 425.576 930.846 424.712 928.11 422.984C925.374 421.208 923.382 419 922.134 416.36V443.576H917.166V385.688H922.134V394.328ZM951.366 405.272C951.366 402.008 950.718 399.2 949.422 396.848C948.174 394.448 946.446 392.624 944.238 391.376C942.03 390.128 939.534 389.504 936.75 389.504C934.062 389.504 931.59 390.152 929.334 391.448C927.126 392.744 925.374 394.592 924.078 396.992C922.782 399.392 922.134 402.176 922.134 405.344C922.134 408.512 922.782 411.296 924.078 413.696C925.374 416.096 927.126 417.944 929.334 419.24C931.59 420.536 934.062 421.184 936.75 421.184C939.534 421.184 942.03 420.56 944.238 419.312C946.446 418.016 948.174 416.168 949.422 413.768C950.718 411.32 951.366 408.488 951.366 405.272ZM1001.32 403.328C1001.32 405.056 1001.27 406.376 1001.18 407.288H968.56C968.704 410.264 969.424 412.808 970.72 414.92C972.016 417.032 973.72 418.64 975.832 419.744C977.944 420.8 980.248 421.328 982.744 421.328C986.008 421.328 988.744 420.536 990.952 418.952C993.208 417.368 994.696 415.232 995.416 412.544H1000.74C999.784 416.384 997.72 419.528 994.552 421.976C991.432 424.376 987.496 425.576 982.744 425.576C979.048 425.576 975.736 424.76 972.808 423.128C969.88 421.448 967.576 419.096 965.896 416.072C964.264 413 963.448 409.424 963.448 405.344C963.448 401.264 964.264 397.688 965.896 394.616C967.528 391.544 969.808 389.192 972.736 387.56C975.664 385.928 979 385.112 982.744 385.112C986.488 385.112 989.752 385.928 992.536 387.56C995.368 389.192 997.528 391.4 999.016 394.184C1000.55 396.92 1001.32 399.968 1001.32 403.328ZM996.208 403.184C996.256 400.256 995.656 397.76 994.408 395.696C993.208 393.632 991.552 392.072 989.44 391.016C987.328 389.96 985.024 389.432 982.528 389.432C978.784 389.432 975.592 390.632 972.952 393.032C970.312 395.432 968.848 398.816 968.56 403.184H996.208ZM1015.58 392.672C1016.69 390.224 1018.37 388.328 1020.62 386.984C1022.93 385.64 1025.73 384.968 1029.05 384.968V390.224H1027.68C1024.03 390.224 1021.1 391.208 1018.89 393.176C1016.69 395.144 1015.58 398.432 1015.58 403.04V425H1010.54V385.688H1015.58V392.672ZM107.713 465.688L95.4013 505H90.3613L79.4893 472.024L68.6173 505H63.5053L51.1933 465.688H56.3053L66.0973 499.888L77.1133 465.688H82.1533L93.0253 499.96L102.745 465.688H107.713ZM117.104 458.272C116.096 458.272 115.232 457.912 114.512 457.192C113.792 456.472 113.432 455.584 113.432 454.528C113.432 453.472 113.792 452.608 114.512 451.936C115.232 451.216 116.096 450.856 117.104 450.856C118.112 450.856 118.976 451.216 119.696 451.936C120.416 452.608 120.776 453.472 120.776 454.528C120.776 455.584 120.416 456.472 119.696 457.192C118.976 457.912 118.112 458.272 117.104 458.272ZM119.624 465.688V505H114.584V465.688H119.624ZM137.589 469.936V494.344C137.589 496.744 138.045 498.4 138.957 499.312C139.869 500.224 141.477 500.68 143.781 500.68H148.389V505H142.989C139.437 505 136.797 504.184 135.069 502.552C133.341 500.872 132.477 498.136 132.477 494.344V469.936H127.005V465.688H132.477V455.824H137.589V465.688H148.389V469.936H137.589ZM175.421 464.968C178.397 464.968 181.061 465.592 183.413 466.84C185.813 468.088 187.685 470.008 189.029 472.6C190.421 475.144 191.117 478.264 191.117 481.96V505H186.149V482.536C186.149 478.264 185.069 475 182.909 472.744C180.797 470.488 177.893 469.36 174.197 469.36C170.405 469.36 167.381 470.56 165.125 472.96C162.869 475.36 161.741 478.888 161.741 483.544V505H156.701V451.72H161.741V472.384C162.989 470.032 164.813 468.208 167.213 466.912C169.661 465.616 172.397 464.968 175.421 464.968ZM219.718 485.272C219.718 481.24 220.51 477.712 222.094 474.688C223.726 471.616 225.958 469.264 228.79 467.632C231.67 465.952 234.91 465.112 238.51 465.112C242.254 465.112 245.47 465.976 248.158 467.704C250.894 469.432 252.862 471.64 254.062 474.328V465.688H259.102V505H254.062V496.288C252.814 498.976 250.822 501.208 248.086 502.984C245.398 504.712 242.182 505.576 238.438 505.576C234.886 505.576 231.67 504.736 228.79 503.056C225.958 501.376 223.726 499 222.094 495.928C220.51 492.856 219.718 489.304 219.718 485.272ZM254.062 485.344C254.062 482.176 253.414 479.392 252.118 476.992C250.822 474.592 249.046 472.744 246.79 471.448C244.582 470.152 242.134 469.504 239.446 469.504C236.662 469.504 234.166 470.128 231.958 471.376C229.75 472.624 227.998 474.448 226.702 476.848C225.454 479.2 224.83 482.008 224.83 485.272C224.83 488.488 225.454 491.32 226.702 493.768C227.998 496.168 229.75 498.016 231.958 499.312C234.166 500.56 236.662 501.184 239.446 501.184C242.134 501.184 244.582 500.536 246.79 499.24C249.046 497.944 250.822 496.096 252.118 493.696C253.414 491.296 254.062 488.512 254.062 485.344ZM295.333 474.328C296.581 471.688 298.549 469.504 301.237 467.776C303.973 466 307.213 465.112 310.957 465.112C314.509 465.112 317.701 465.952 320.533 467.632C323.413 469.264 325.645 471.616 327.229 474.688C328.861 477.712 329.677 481.24 329.677 485.272C329.677 489.304 328.861 492.856 327.229 495.928C325.645 499 323.413 501.376 320.533 503.056C317.701 504.736 314.509 505.576 310.957 505.576C307.261 505.576 304.045 504.712 301.309 502.984C298.573 501.208 296.581 499 295.333 496.36V523.576H290.365V465.688H295.333V474.328ZM324.565 485.272C324.565 482.008 323.917 479.2 322.621 476.848C321.373 474.448 319.645 472.624 317.437 471.376C315.229 470.128 312.733 469.504 309.949 469.504C307.261 469.504 304.789 470.152 302.533 471.448C300.325 472.744 298.573 474.592 297.277 476.992C295.981 479.392 295.333 482.176 295.333 485.344C295.333 488.512 295.981 491.296 297.277 493.696C298.573 496.096 300.325 497.944 302.533 499.24C304.789 500.536 307.261 501.184 309.949 501.184C312.733 501.184 315.229 500.56 317.437 499.312C319.645 498.016 321.373 496.168 322.621 493.768C323.917 491.32 324.565 488.488 324.565 485.272ZM336.647 485.272C336.647 481.24 337.439 477.712 339.023 474.688C340.655 471.616 342.887 469.264 345.719 467.632C348.599 465.952 351.839 465.112 355.439 465.112C359.183 465.112 362.399 465.976 365.087 467.704C367.823 469.432 369.791 471.64 370.991 474.328V465.688H376.031V505H370.991V496.288C369.743 498.976 367.751 501.208 365.015 502.984C362.327 504.712 359.111 505.576 355.367 505.576C351.815 505.576 348.599 504.736 345.719 503.056C342.887 501.376 340.655 499 339.023 495.928C337.439 492.856 336.647 489.304 336.647 485.272ZM370.991 485.344C370.991 482.176 370.343 479.392 369.047 476.992C367.751 474.592 365.975 472.744 363.719 471.448C361.511 470.152 359.063 469.504 356.375 469.504C353.591 469.504 351.095 470.128 348.887 471.376C346.679 472.624 344.927 474.448 343.631 476.848C342.383 479.2 341.759 482.008 341.759 485.272C341.759 488.488 342.383 491.32 343.631 493.768C344.927 496.168 346.679 498.016 348.887 499.312C351.095 500.56 353.591 501.184 356.375 501.184C359.063 501.184 361.511 500.536 363.719 499.24C365.975 497.944 367.751 496.096 369.047 493.696C370.343 491.296 370.991 488.512 370.991 485.344ZM401.073 505.576C396.561 505.576 392.865 504.544 389.985 502.48C387.153 500.368 385.569 497.512 385.233 493.912H390.417C390.657 496.12 391.689 497.92 393.513 499.312C395.385 500.656 397.881 501.328 401.001 501.328C403.737 501.328 405.873 500.68 407.409 499.384C408.993 498.088 409.785 496.48 409.785 494.56C409.785 493.216 409.353 492.112 408.489 491.248C407.625 490.384 406.521 489.712 405.177 489.232C403.881 488.704 402.105 488.152 399.849 487.576C396.921 486.808 394.545 486.04 392.721 485.272C390.897 484.504 389.337 483.376 388.041 481.888C386.793 480.352 386.169 478.312 386.169 475.768C386.169 473.848 386.745 472.072 387.897 470.44C389.049 468.808 390.681 467.512 392.793 466.552C394.905 465.592 397.305 465.112 399.993 465.112C404.217 465.112 407.625 466.192 410.217 468.352C412.809 470.464 414.201 473.392 414.393 477.136H409.353C409.209 474.832 408.297 472.984 406.617 471.592C404.985 470.152 402.729 469.432 399.849 469.432C397.305 469.432 395.241 470.032 393.657 471.232C392.073 472.432 391.281 473.92 391.281 475.696C391.281 477.232 391.737 478.504 392.649 479.512C393.609 480.472 394.785 481.24 396.177 481.816C397.569 482.344 399.441 482.944 401.793 483.616C404.625 484.384 406.881 485.128 408.561 485.848C410.241 486.568 411.681 487.624 412.881 489.016C414.081 490.408 414.705 492.256 414.753 494.56C414.753 496.672 414.177 498.568 413.025 500.248C411.873 501.88 410.265 503.176 408.201 504.136C406.137 505.096 403.761 505.576 401.073 505.576ZM437.776 505.576C433.264 505.576 429.568 504.544 426.688 502.48C423.856 500.368 422.272 497.512 421.936 493.912H427.12C427.36 496.12 428.392 497.92 430.216 499.312C432.088 500.656 434.584 501.328 437.704 501.328C440.44 501.328 442.576 500.68 444.112 499.384C445.696 498.088 446.488 496.48 446.488 494.56C446.488 493.216 446.056 492.112 445.192 491.248C444.328 490.384 443.224 489.712 441.88 489.232C440.584 488.704 438.808 488.152 436.552 487.576C433.624 486.808 431.248 486.04 429.424 485.272C427.6 484.504 426.04 483.376 424.744 481.888C423.496 480.352 422.872 478.312 422.872 475.768C422.872 473.848 423.448 472.072 424.6 470.44C425.752 468.808 427.384 467.512 429.496 466.552C431.608 465.592 434.008 465.112 436.696 465.112C440.92 465.112 444.328 466.192 446.92 468.352C449.512 470.464 450.904 473.392 451.096 477.136H446.056C445.912 474.832 445 472.984 443.32 471.592C441.688 470.152 439.432 469.432 436.552 469.432C434.008 469.432 431.944 470.032 430.36 471.232C428.776 472.432 427.984 473.92 427.984 475.696C427.984 477.232 428.44 478.504 429.352 479.512C430.312 480.472 431.488 481.24 432.88 481.816C434.272 482.344 436.144 482.944 438.496 483.616C441.328 484.384 443.584 485.128 445.264 485.848C446.944 486.568 448.384 487.624 449.584 489.016C450.784 490.408 451.408 492.256 451.456 494.56C451.456 496.672 450.88 498.568 449.728 500.248C448.576 501.88 446.968 503.176 444.904 504.136C442.84 505.096 440.464 505.576 437.776 505.576ZM463.464 458.272C462.456 458.272 461.592 457.912 460.872 457.192C460.152 456.472 459.792 455.584 459.792 454.528C459.792 453.472 460.152 452.608 460.872 451.936C461.592 451.216 462.456 450.856 463.464 450.856C464.472 450.856 465.336 451.216 466.056 451.936C466.776 452.608 467.136 453.472 467.136 454.528C467.136 455.584 466.776 456.472 466.056 457.192C465.336 457.912 464.472 458.272 463.464 458.272ZM465.984 465.688V505H460.944V465.688H465.984ZM494.605 505.576C490.909 505.576 487.573 504.76 484.597 503.128C481.669 501.448 479.341 499.096 477.613 496.072C475.933 493 475.093 489.424 475.093 485.344C475.093 481.264 475.957 477.712 477.685 474.688C479.413 471.616 481.765 469.264 484.741 467.632C487.717 465.952 491.053 465.112 494.749 465.112C498.445 465.112 501.781 465.952 504.757 467.632C507.781 469.264 510.133 471.616 511.813 474.688C513.541 477.712 514.405 481.264 514.405 485.344C514.405 489.376 513.541 492.928 511.813 496C510.085 499.072 507.709 501.448 504.685 503.128C501.661 504.76 498.301 505.576 494.605 505.576ZM494.605 501.184C497.197 501.184 499.597 500.608 501.805 499.456C504.013 498.256 505.789 496.48 507.133 494.128C508.525 491.728 509.221 488.8 509.221 485.344C509.221 481.888 508.549 478.984 507.205 476.632C505.861 474.232 504.085 472.456 501.877 471.304C499.669 470.104 497.269 469.504 494.677 469.504C492.085 469.504 489.685 470.104 487.477 471.304C485.269 472.456 483.493 474.232 482.149 476.632C480.853 478.984 480.205 481.888 480.205 485.344C480.205 488.8 480.853 491.728 482.149 494.128C483.493 496.48 485.245 498.256 487.405 499.456C489.613 500.608 492.013 501.184 494.605 501.184ZM542.024 464.968C546.728 464.968 550.568 466.432 553.544 469.36C556.52 472.24 558.008 476.44 558.008 481.96V505H553.04V482.536C553.04 478.264 551.96 475 549.8 472.744C547.688 470.488 544.784 469.36 541.088 469.36C537.296 469.36 534.272 470.56 532.016 472.96C529.76 475.36 528.632 478.888 528.632 483.544V505H523.592V465.688H528.632V472.384C529.88 469.984 531.68 468.16 534.032 466.912C536.384 465.616 539.048 464.968 542.024 464.968ZM595.464 469.936V494.344C595.464 496.744 595.92 498.4 596.832 499.312C597.744 500.224 599.352 500.68 601.656 500.68H606.264V505H600.864C597.312 505 594.672 504.184 592.944 502.552C591.216 500.872 590.352 498.136 590.352 494.344V469.936H584.88V465.688H590.352V455.824H595.464V465.688H606.264V469.936H595.464ZM631.784 505.576C628.088 505.576 624.752 504.76 621.776 503.128C618.848 501.448 616.52 499.096 614.792 496.072C613.112 493 612.272 489.424 612.272 485.344C612.272 481.264 613.136 477.712 614.864 474.688C616.592 471.616 618.944 469.264 621.92 467.632C624.896 465.952 628.232 465.112 631.928 465.112C635.624 465.112 638.96 465.952 641.936 467.632C644.96 469.264 647.312 471.616 648.992 474.688C650.72 477.712 651.584 481.264 651.584 485.344C651.584 489.376 650.72 492.928 648.992 496C647.264 499.072 644.888 501.448 641.864 503.128C638.84 504.76 635.48 505.576 631.784 505.576ZM631.784 501.184C634.376 501.184 636.776 500.608 638.984 499.456C641.192 498.256 642.968 496.48 644.312 494.128C645.704 491.728 646.4 488.8 646.4 485.344C646.4 481.888 645.728 478.984 644.384 476.632C643.04 474.232 641.264 472.456 639.056 471.304C636.848 470.104 634.448 469.504 631.856 469.504C629.264 469.504 626.864 470.104 624.656 471.304C622.448 472.456 620.672 474.232 619.328 476.632C618.032 478.984 617.384 481.888 617.384 485.344C617.384 488.8 618.032 491.728 619.328 494.128C620.672 496.48 622.424 498.256 624.584 499.456C626.792 500.608 629.192 501.184 631.784 501.184ZM872.886 505.576C869.19 505.576 865.854 504.76 862.878 503.128C859.95 501.448 857.622 499.096 855.894 496.072C854.214 493 853.374 489.424 853.374 485.344C853.374 481.264 854.238 477.712 855.966 474.688C857.694 471.616 860.046 469.264 863.022 467.632C865.998 465.952 869.334 465.112 873.03 465.112C876.726 465.112 880.062 465.952 883.038 467.632C886.062 469.264 888.414 471.616 890.094 474.688C891.822 477.712 892.686 481.264 892.686 485.344C892.686 489.376 891.822 492.928 890.094 496C888.366 499.072 885.99 501.448 882.966 503.128C879.942 504.76 876.582 505.576 872.886 505.576ZM872.886 501.184C875.478 501.184 877.878 500.608 880.086 499.456C882.294 498.256 884.07 496.48 885.414 494.128C886.806 491.728 887.502 488.8 887.502 485.344C887.502 481.888 886.83 478.984 885.486 476.632C884.142 474.232 882.366 472.456 880.158 471.304C877.95 470.104 875.55 469.504 872.958 469.504C870.366 469.504 867.966 470.104 865.758 471.304C863.55 472.456 861.774 474.232 860.43 476.632C859.134 478.984 858.486 481.888 858.486 485.344C858.486 488.8 859.134 491.728 860.43 494.128C861.774 496.48 863.526 498.256 865.686 499.456C867.894 500.608 870.294 501.184 872.886 501.184ZM908.425 469.936V494.344C908.425 496.744 908.881 498.4 909.793 499.312C910.705 500.224 912.313 500.68 914.617 500.68H919.225V505H913.825C910.273 505 907.633 504.184 905.905 502.552C904.177 500.872 903.313 498.136 903.313 494.344V469.936H897.841V465.688H903.313V455.824H908.425V465.688H919.225V469.936H908.425ZM946.257 464.968C949.233 464.968 951.897 465.592 954.249 466.84C956.649 468.088 958.521 470.008 959.865 472.6C961.257 475.144 961.953 478.264 961.953 481.96V505H956.985V482.536C956.985 478.264 955.905 475 953.745 472.744C951.633 470.488 948.729 469.36 945.033 469.36C941.241 469.36 938.217 470.56 935.961 472.96C933.705 475.36 932.577 478.888 932.577 483.544V505H927.537V451.72H932.577V472.384C933.825 470.032 935.649 468.208 938.049 466.912C940.497 465.616 943.233 464.968 946.257 464.968ZM1008.67 483.328C1008.67 485.056 1008.62 486.376 1008.52 487.288H975.908C976.052 490.264 976.772 492.808 978.068 494.92C979.364 497.032 981.068 498.64 983.18 499.744C985.292 500.8 987.596 501.328 990.092 501.328C993.356 501.328 996.092 500.536 998.3 498.952C1000.56 497.368 1002.04 495.232 1002.76 492.544H1008.09C1007.13 496.384 1005.07 499.528 1001.9 501.976C998.78 504.376 994.844 505.576 990.092 505.576C986.396 505.576 983.084 504.76 980.156 503.128C977.228 501.448 974.924 499.096 973.244 496.072C971.612 493 970.796 489.424 970.796 485.344C970.796 481.264 971.612 477.688 973.244 474.616C974.876 471.544 977.156 469.192 980.084 467.56C983.012 465.928 986.348 465.112 990.092 465.112C993.836 465.112 997.1 465.928 999.884 467.56C1002.72 469.192 1004.88 471.4 1006.36 474.184C1007.9 476.92 1008.67 479.968 1008.67 483.328ZM1003.56 483.184C1003.6 480.256 1003 477.76 1001.76 475.696C1000.56 473.632 998.9 472.072 996.788 471.016C994.676 469.96 992.372 469.432 989.876 469.432C986.132 469.432 982.94 470.632 980.3 473.032C977.66 475.432 976.196 478.816 975.908 483.184H1003.56ZM1022.93 472.672C1024.03 470.224 1025.71 468.328 1027.97 466.984C1030.27 465.64 1033.08 464.968 1036.39 464.968V470.224H1035.02C1031.38 470.224 1028.45 471.208 1026.24 473.176C1024.03 475.144 1022.93 478.432 1022.93 483.04V505H1017.89V465.688H1022.93V472.672ZM1057.51 505.576C1053 505.576 1049.3 504.544 1046.42 502.48C1043.59 500.368 1042.01 497.512 1041.67 493.912H1046.85C1047.09 496.12 1048.13 497.92 1049.95 499.312C1051.82 500.656 1054.32 501.328 1057.44 501.328C1060.17 501.328 1062.31 500.68 1063.85 499.384C1065.43 498.088 1066.22 496.48 1066.22 494.56C1066.22 493.216 1065.79 492.112 1064.93 491.248C1064.06 490.384 1062.96 489.712 1061.61 489.232C1060.32 488.704 1058.54 488.152 1056.29 487.576C1053.36 486.808 1050.98 486.04 1049.16 485.272C1047.33 484.504 1045.77 483.376 1044.48 481.888C1043.23 480.352 1042.61 478.312 1042.61 475.768C1042.61 473.848 1043.18 472.072 1044.33 470.44C1045.49 468.808 1047.12 467.512 1049.23 466.552C1051.34 465.592 1053.74 465.112 1056.43 465.112C1060.65 465.112 1064.06 466.192 1066.65 468.352C1069.25 470.464 1070.64 473.392 1070.83 477.136H1065.79C1065.65 474.832 1064.73 472.984 1063.05 471.592C1061.42 470.152 1059.17 469.432 1056.29 469.432C1053.74 469.432 1051.68 470.032 1050.09 471.232C1048.51 472.432 1047.72 473.92 1047.72 475.696C1047.72 477.232 1048.17 478.504 1049.09 479.512C1050.05 480.472 1051.22 481.24 1052.61 481.816C1054.01 482.344 1055.88 482.944 1058.23 483.616C1061.06 484.384 1063.32 485.128 1065 485.848C1066.68 486.568 1068.12 487.624 1069.32 489.016C1070.52 490.408 1071.14 492.256 1071.19 494.56C1071.19 496.672 1070.61 498.568 1069.46 500.248C1068.31 501.88 1066.7 503.176 1064.64 504.136C1062.57 505.096 1060.2 505.576 1057.51 505.576ZM1087.45 454.672L1086.8 491.68H1082.55L1081.97 454.672H1087.45ZM1084.93 505.36C1083.87 505.36 1082.98 505 1082.26 504.28C1081.59 503.56 1081.25 502.672 1081.25 501.616C1081.25 500.56 1081.59 499.696 1082.26 499.024C1082.98 498.304 1083.87 497.944 1084.93 497.944C1085.93 497.944 1086.77 498.304 1087.45 499.024C1088.17 499.696 1088.53 500.56 1088.53 501.616C1088.53 502.672 1088.17 503.56 1087.45 504.28C1086.77 505 1085.93 505.36 1084.93 505.36Z" fill="black"/>
</svg>
