<svg width="1280" height="367" viewBox="0 0 1280 367" fill="none" xmlns="http://www.w3.org/2000/svg">
<rect width="1280" height="367" rx="25" fill="white"/>
<path d="M260.987 259.273C251.896 259.273 243.871 256.976 236.911 252.384C229.95 247.743 224.505 241.209 220.575 232.781C216.645 224.306 214.68 214.292 214.68 202.739C214.68 191.28 216.645 181.337 220.575 172.909C224.505 164.481 229.974 157.971 236.982 153.378C243.989 148.785 252.086 146.489 261.271 146.489C268.374 146.489 273.984 147.672 278.104 150.04C282.27 152.36 285.443 155.011 287.621 157.994C289.846 160.93 291.574 163.345 292.805 165.239H294.226V111.545H310.987V257H294.794V240.239H292.805C291.574 242.227 289.822 244.737 287.55 247.767C285.277 250.75 282.034 253.425 277.82 255.793C273.606 258.113 267.995 259.273 260.987 259.273ZM263.26 244.216C269.983 244.216 275.665 242.464 280.305 238.96C284.946 235.409 288.473 230.509 290.888 224.259C293.303 217.961 294.51 210.693 294.51 202.455C294.51 194.311 293.326 187.185 290.959 181.077C288.591 174.921 285.088 170.139 280.447 166.73C275.807 163.274 270.078 161.545 263.26 161.545C256.158 161.545 250.239 163.368 245.504 167.014C240.817 170.613 237.289 175.513 234.922 181.716C232.602 187.871 231.442 194.784 231.442 202.455C231.442 210.22 232.625 217.275 234.993 223.619C237.408 229.917 240.959 234.936 245.646 238.676C250.381 242.369 256.252 244.216 263.26 244.216ZM344.013 297.909V147.909H360.206V165.239H362.195C363.426 163.345 365.13 160.93 367.308 157.994C369.534 155.011 372.706 152.36 376.825 150.04C380.992 147.672 386.626 146.489 393.729 146.489C402.914 146.489 411.011 148.785 418.018 153.378C425.026 157.971 430.495 164.481 434.425 172.909C438.355 181.337 440.32 191.28 440.32 202.739C440.32 214.292 438.355 224.306 434.425 232.781C430.495 241.209 425.05 247.743 418.089 252.384C411.129 256.976 403.104 259.273 394.013 259.273C387.005 259.273 381.394 258.113 377.18 255.793C372.966 253.425 369.723 250.75 367.45 247.767C365.178 244.737 363.426 242.227 362.195 240.239H360.774V297.909H344.013ZM360.49 202.455C360.49 210.693 361.697 217.961 364.112 224.259C366.527 230.509 370.054 235.409 374.695 238.96C379.335 242.464 385.017 244.216 391.74 244.216C398.748 244.216 404.595 242.369 409.283 238.676C414.018 234.936 417.569 229.917 419.936 223.619C422.351 217.275 423.558 210.22 423.558 202.455C423.558 194.784 422.375 187.871 420.007 181.716C417.687 175.513 414.16 170.613 409.425 167.014C404.737 163.368 398.842 161.545 391.74 161.545C384.922 161.545 379.193 163.274 374.553 166.73C369.912 170.139 366.409 174.921 364.041 181.077C361.674 187.185 360.49 194.311 360.49 202.455ZM497.99 259.557C491.077 259.557 484.804 258.255 479.169 255.651C473.535 252.999 469.06 249.188 465.746 244.216C462.431 239.197 460.774 233.136 460.774 226.034C460.774 219.784 462.005 214.718 464.467 210.835C466.929 206.905 470.22 203.828 474.339 201.602C478.459 199.377 483.004 197.72 487.976 196.631C492.995 195.494 498.037 194.595 503.104 193.932C509.732 193.08 515.107 192.44 519.226 192.014C523.393 191.541 526.423 190.759 528.317 189.67C530.258 188.581 531.229 186.687 531.229 183.989V183.42C531.229 176.413 529.311 170.968 525.476 167.085C521.688 163.203 515.935 161.261 508.217 161.261C500.215 161.261 493.942 163.013 489.396 166.517C484.851 170.021 481.655 173.761 479.808 177.739L463.899 172.057C466.74 165.428 470.528 160.267 475.263 156.574C480.045 152.833 485.253 150.229 490.888 148.761C496.57 147.246 502.157 146.489 507.649 146.489C511.153 146.489 515.178 146.915 519.723 147.767C524.316 148.572 528.743 150.253 533.004 152.81C537.313 155.366 540.888 159.225 543.729 164.386C546.57 169.547 547.99 176.46 547.99 185.125V257H531.229V242.227H530.376C529.24 244.595 527.346 247.128 524.695 249.827C522.043 252.526 518.516 254.822 514.112 256.716C509.709 258.61 504.335 259.557 497.99 259.557ZM500.547 244.5C507.176 244.5 512.763 243.198 517.308 240.594C521.901 237.99 525.357 234.628 527.678 230.509C530.045 226.389 531.229 222.057 531.229 217.511V202.17C530.518 203.023 528.956 203.804 526.541 204.514C524.174 205.177 521.428 205.769 518.303 206.29C515.225 206.763 512.218 207.189 509.283 207.568C506.394 207.9 504.051 208.184 502.251 208.42C497.895 208.989 493.823 209.912 490.036 211.19C486.295 212.421 483.265 214.292 480.945 216.801C478.672 219.263 477.536 222.625 477.536 226.886C477.536 232.71 479.69 237.114 483.999 240.097C488.355 243.032 493.871 244.5 500.547 244.5ZM647.333 212.398V147.909H664.094V257H647.333V238.534H646.197C643.64 244.074 639.663 248.785 634.265 252.668C628.867 256.503 622.049 258.42 613.81 258.42C606.992 258.42 600.932 256.929 595.629 253.946C590.326 250.916 586.159 246.37 583.129 240.31C580.098 234.202 578.583 226.508 578.583 217.227V147.909H595.344V216.091C595.344 224.045 597.57 230.39 602.021 235.125C606.519 239.86 612.248 242.227 619.208 242.227C623.375 242.227 627.612 241.162 631.921 239.031C636.277 236.901 639.923 233.634 642.859 229.23C645.842 224.827 647.333 219.216 647.333 212.398ZM711.555 111.545V257H694.794V111.545H711.555ZM786.573 259.273C776.725 259.273 768.084 256.929 760.65 252.241C753.263 247.554 747.487 240.996 743.32 232.568C739.201 224.14 737.141 214.292 737.141 203.023C737.141 191.659 739.201 181.74 743.32 173.264C747.487 164.789 753.263 158.207 760.65 153.52C768.084 148.832 776.725 146.489 786.573 146.489C796.422 146.489 805.039 148.832 812.425 153.52C819.859 158.207 825.636 164.789 829.755 173.264C833.922 181.74 836.005 191.659 836.005 203.023C836.005 214.292 833.922 224.14 829.755 232.568C825.636 240.996 819.859 247.554 812.425 252.241C805.039 256.929 796.422 259.273 786.573 259.273ZM786.573 244.216C794.054 244.216 800.21 242.298 805.039 238.463C809.869 234.628 813.443 229.585 815.763 223.335C818.084 217.085 819.244 210.314 819.244 203.023C819.244 195.731 818.084 188.937 815.763 182.639C813.443 176.342 809.869 171.252 805.039 167.369C800.21 163.487 794.054 161.545 786.573 161.545C779.092 161.545 772.937 163.487 768.107 167.369C763.278 171.252 759.703 176.342 757.383 182.639C755.063 188.937 753.903 195.731 753.903 203.023C753.903 210.314 755.063 217.085 757.383 223.335C759.703 229.585 763.278 234.628 768.107 238.463C772.937 242.298 779.092 244.216 786.573 244.216ZM938.864 172.341L923.807 176.602C922.86 174.093 921.463 171.654 919.616 169.287C917.817 166.872 915.355 164.884 912.23 163.321C909.105 161.759 905.104 160.977 900.227 160.977C893.551 160.977 887.988 162.516 883.537 165.594C879.134 168.624 876.932 172.483 876.932 177.17C876.932 181.337 878.447 184.628 881.477 187.043C884.508 189.457 889.242 191.47 895.682 193.08L911.875 197.057C921.629 199.424 928.897 203.046 933.679 207.923C938.461 212.753 940.852 218.979 940.852 226.602C940.852 232.852 939.053 238.439 935.455 243.364C931.903 248.288 926.932 252.17 920.54 255.011C914.148 257.852 906.714 259.273 898.239 259.273C887.112 259.273 877.902 256.858 870.611 252.028C863.319 247.199 858.703 240.144 856.761 230.864L872.67 226.886C874.186 232.758 877.05 237.161 881.264 240.097C885.526 243.032 891.089 244.5 897.955 244.5C905.767 244.5 911.97 242.843 916.562 239.528C921.203 236.167 923.523 232.142 923.523 227.455C923.523 223.667 922.197 220.494 919.545 217.938C916.894 215.333 912.822 213.392 907.33 212.114L889.148 207.852C879.157 205.485 871.818 201.815 867.131 196.844C862.491 191.825 860.17 185.551 860.17 178.023C860.17 171.867 861.899 166.422 865.355 161.688C868.859 156.953 873.617 153.236 879.631 150.537C885.691 147.838 892.557 146.489 900.227 146.489C911.023 146.489 919.498 148.856 925.653 153.591C931.856 158.326 936.259 164.576 938.864 172.341Z" fill="black"/>
<path d="M1014.09 258.989C1008.13 258.894 1002.16 257.758 996.197 255.58C990.231 253.402 984.786 249.732 979.862 244.571C974.937 239.363 970.984 232.331 968.001 223.477C965.018 214.576 963.526 203.402 963.526 189.955C963.526 177.076 964.734 165.665 967.148 155.722C969.563 145.731 973.067 137.327 977.66 130.509C982.253 123.643 987.792 118.435 994.279 114.884C1000.81 111.332 1008.18 109.557 1016.37 109.557C1024.51 109.557 1031.76 111.19 1038.1 114.457C1044.49 117.677 1049.7 122.175 1053.73 127.952C1057.75 133.728 1060.35 140.381 1061.54 147.909H1044.21C1042.6 141.375 1039.47 135.954 1034.83 131.645C1030.19 127.336 1024.04 125.182 1016.37 125.182C1005.1 125.182 996.22 130.082 989.734 139.884C983.294 149.685 980.051 163.439 980.004 181.148H981.14C983.791 177.123 986.94 173.69 990.586 170.849C994.279 167.961 998.351 165.736 1002.8 164.173C1007.25 162.611 1011.96 161.83 1016.94 161.83C1025.27 161.83 1032.89 163.913 1039.8 168.08C1046.72 172.199 1052.26 177.904 1056.42 185.196C1060.59 192.44 1062.67 200.75 1062.67 210.125C1062.67 219.121 1060.66 227.36 1056.64 234.841C1052.61 242.275 1046.95 248.193 1039.66 252.597C1032.42 256.953 1023.9 259.083 1014.09 258.989ZM1014.09 243.364C1020.06 243.364 1025.41 241.872 1030.15 238.889C1034.93 235.906 1038.69 231.905 1041.44 226.886C1044.23 221.867 1045.63 216.28 1045.63 210.125C1045.63 204.112 1044.28 198.643 1041.58 193.719C1038.93 188.747 1035.26 184.794 1030.57 181.858C1025.93 178.922 1020.63 177.455 1014.66 177.455C1010.16 177.455 1005.97 178.354 1002.09 180.153C998.209 181.905 994.8 184.32 991.864 187.398C988.976 190.475 986.703 194.003 985.046 197.98C983.389 201.91 982.56 206.053 982.56 210.409C982.56 216.186 983.91 221.583 986.609 226.602C989.355 231.621 993.095 235.67 997.83 238.747C1002.61 241.825 1008.03 243.364 1014.09 243.364Z" fill="#40A2E3"/>
</svg>
